<?xml version="1.0" encoding="UTF-8" standalone="no" ?>
<!DOCTYPE svg PUBLIC "-//W3C//DTD SVG 1.1//EN" "http://www.w3.org/Graphics/SVG/1.1/DTD/svg11.dtd">
<svg xmlns="http://www.w3.org/2000/svg" xmlns:xlink="http://www.w3.org/1999/xlink" version="1.1" width="1080" height="1080" viewBox="0 0 1080 1080" xml:space="preserve">
<desc>Created with Fabric.js 5.2.4</desc>
<defs>
</defs>
<g transform="matrix(1 0 0 1 540 540)" id="75da8304-0823-49b5-8551-035e59c02fff"  >
<rect style="stroke: none; stroke-width: 1; stroke-dasharray: none; stroke-linecap: butt; stroke-dashoffset: 0; stroke-linejoin: miter; stroke-miterlimit: 4; fill: rgb(255,255,255); fill-rule: nonzero; opacity: 1; visibility: hidden;" vector-effect="non-scaling-stroke"  x="-540" y="-540" rx="0" ry="0" width="1080" height="1080" />
</g>
<g transform="matrix(1 0 0 1 540 540)" id="b4e21c2d-b6e6-4f56-941c-71d7a7187c1f"  >
</g>
<g transform="matrix(13.4 0 0 13.4 578.1 558.65)"  >
<path style="stroke: rgb(0,0,0); stroke-width: 0; stroke-dasharray: none; stroke-linecap: butt; stroke-dashoffset: 0; stroke-linejoin: miter; stroke-miterlimit: 4; fill: rgb(120,139,255); fill-rule: nonzero; opacity: 1;" vector-effect="non-scaling-stroke"  transform=" translate(-50.5, -50)" d="M 22.66 19.967 C 17.585 19.967 13.448 24.104 13.448 29.180999999999997 L 13.448 78.31 C 13.448 83.387 17.585 87.584 22.723 87.584 L 71.791 87.584 C 76.868 87.584 81.065 83.387 81.065 78.31 C 80.814 71.479 63.769999999999996 68.974 51.613 63.646 L 85.765 29.494999999999997 C 88.146 27.051 88.146 23.165 85.765 20.784 L 79.187 14.203999999999999 C 76.803 11.822999999999999 72.919 11.822999999999999 70.538 14.203999999999999 L 36.76 47.981 C 31.998 36.137 29.616 20.846 22.66 19.967 z" stroke-linecap="round" />
</g>
<g transform="matrix(13.4 0 0 13.4 505.22 508.08)"  >
<path style="stroke: rgb(0,0,0); stroke-width: 0; stroke-dasharray: none; stroke-linecap: butt; stroke-dashoffset: 0; stroke-linejoin: miter; stroke-miterlimit: 4; fill: rgb(25,22,159); fill-rule: nonzero; opacity: 1;" vector-effect="non-scaling-stroke"  transform=" translate(-50.5, -50)" d="M 22.66 19.967 C 17.585 19.967 13.448 24.104 13.448 29.180999999999997 L 13.448 78.31 C 13.448 83.387 17.585 87.584 22.723 87.584 L 71.791 87.584 C 76.868 87.584 81.065 83.387 81.065 78.31 C 80.814 71.479 63.769999999999996 68.974 51.613 63.646 L 85.765 29.494999999999997 C 88.146 27.051 88.146 23.165 85.765 20.784 L 79.187 14.203999999999999 C 76.803 11.822999999999999 72.919 11.822999999999999 70.538 14.203999999999999 L 36.76 47.981 C 31.998 36.137 29.616 20.846 22.66 19.967 z" stroke-linecap="round" />
</g>
<g transform="matrix(0 0 0 0 0 0)"  >
<g style=""   >
</g>
</g>
<g transform="matrix(NaN NaN NaN NaN 0 0)"  >
<g style=""   >
</g>
</g>
<g transform="matrix(NaN NaN NaN NaN 0 0)"  >
<g style=""   >
</g>
</g>
<g transform="matrix(NaN NaN NaN NaN 0 0)"  >
<g style=""   >
</g>
</g>
<g transform="matrix(NaN NaN NaN NaN 0 0)"  >
<g style=""   >
</g>
</g>
</svg>